<mxfile host="Electron" modified="2024-12-25T23:20:39.504Z" agent="Mozilla/5.0 (Windows NT 10.0; Win64; x64) AppleWebKit/537.36 (KHTML, like Gecko) draw.io/22.1.2 Chrome/114.0.5735.289 Electron/25.9.4 Safari/537.36" etag="Gm19dj3S4LhOlH5wz9pd" version="22.1.2" type="device">
  <diagram name="Pagina-1" id="sntJESB36hT4vd8PDe15">
    <mxGraphModel dx="1293" dy="717" grid="1" gridSize="10" guides="1" tooltips="1" connect="1" arrows="1" fold="1" page="1" pageScale="1" pageWidth="827" pageHeight="1169" math="0" shadow="0">
      <root>
        <mxCell id="0" />
        <mxCell id="1" parent="0" />
        <mxCell id="RwyS920ymA2rjLPkirDZ-1" value="Order Details" style="rounded=0;whiteSpace=wrap;html=1;" parent="1" vertex="1">
          <mxGeometry x="860" y="90" width="120" height="60" as="geometry" />
        </mxCell>
        <mxCell id="RwyS920ymA2rjLPkirDZ-2" value="Orders" style="rounded=0;whiteSpace=wrap;html=1;" parent="1" vertex="1">
          <mxGeometry x="1143.13" y="340" width="120" height="60" as="geometry" />
        </mxCell>
        <mxCell id="RwyS920ymA2rjLPkirDZ-3" value="Customers" style="rounded=0;whiteSpace=wrap;html=1;" parent="1" vertex="1">
          <mxGeometry x="1140" y="795" width="120" height="60" as="geometry" />
        </mxCell>
        <mxCell id="RwyS920ymA2rjLPkirDZ-4" value="Products" style="rounded=0;whiteSpace=wrap;html=1;" parent="1" vertex="1">
          <mxGeometry x="524" y="350" width="120" height="60" as="geometry" />
        </mxCell>
        <mxCell id="RwyS920ymA2rjLPkirDZ-5" value="Category" style="rounded=0;whiteSpace=wrap;html=1;" parent="1" vertex="1">
          <mxGeometry x="524" y="710" width="120" height="60" as="geometry" />
        </mxCell>
        <mxCell id="RwyS920ymA2rjLPkirDZ-6" value="FirstName" style="ellipse;whiteSpace=wrap;html=1;" parent="1" vertex="1">
          <mxGeometry x="1380" y="770" width="70" height="40" as="geometry" />
        </mxCell>
        <mxCell id="RwyS920ymA2rjLPkirDZ-7" value="LastName" style="ellipse;whiteSpace=wrap;html=1;" parent="1" vertex="1">
          <mxGeometry x="1380" y="820" width="70" height="40" as="geometry" />
        </mxCell>
        <mxCell id="RwyS920ymA2rjLPkirDZ-9" value="Password" style="ellipse;whiteSpace=wrap;html=1;" parent="1" vertex="1">
          <mxGeometry x="962.5" y="900" width="100" height="40" as="geometry" />
        </mxCell>
        <mxCell id="RwyS920ymA2rjLPkirDZ-10" value="PhoneNumber" style="ellipse;whiteSpace=wrap;html=1;" parent="1" vertex="1">
          <mxGeometry x="950" y="845" width="105" height="40" as="geometry" />
        </mxCell>
        <mxCell id="RwyS920ymA2rjLPkirDZ-11" value="CustomerID (PK)" style="ellipse;whiteSpace=wrap;html=1;" parent="1" vertex="1">
          <mxGeometry x="950" y="730" width="100" height="65" as="geometry" />
        </mxCell>
        <mxCell id="RwyS920ymA2rjLPkirDZ-13" value="CategoryID" style="ellipse;whiteSpace=wrap;html=1;" parent="1" vertex="1">
          <mxGeometry x="471.5" y="795" width="105" height="40" as="geometry" />
        </mxCell>
        <mxCell id="RwyS920ymA2rjLPkirDZ-14" value="CategoryName" style="ellipse;whiteSpace=wrap;html=1;" parent="1" vertex="1">
          <mxGeometry x="591.5" y="795" width="105" height="40" as="geometry" />
        </mxCell>
        <mxCell id="RwyS920ymA2rjLPkirDZ-15" value="Email" style="ellipse;whiteSpace=wrap;html=1;" parent="1" vertex="1">
          <mxGeometry x="962.5" y="805" width="60" height="30" as="geometry" />
        </mxCell>
        <mxCell id="RwyS920ymA2rjLPkirDZ-16" value="" style="endArrow=none;html=1;rounded=0;exitX=1;exitY=0.5;exitDx=0;exitDy=0;entryX=0;entryY=0.25;entryDx=0;entryDy=0;" parent="1" source="RwyS920ymA2rjLPkirDZ-11" target="RwyS920ymA2rjLPkirDZ-3" edge="1">
          <mxGeometry width="50" height="50" relative="1" as="geometry">
            <mxPoint x="1120" y="765" as="sourcePoint" />
            <mxPoint x="1170" y="715" as="targetPoint" />
          </mxGeometry>
        </mxCell>
        <mxCell id="RwyS920ymA2rjLPkirDZ-17" value="" style="endArrow=none;html=1;rounded=0;entryX=1;entryY=0.5;entryDx=0;entryDy=0;exitX=0;exitY=0.75;exitDx=0;exitDy=0;" parent="1" source="RwyS920ymA2rjLPkirDZ-3" target="RwyS920ymA2rjLPkirDZ-15" edge="1">
          <mxGeometry width="50" height="50" relative="1" as="geometry">
            <mxPoint x="1010" y="975" as="sourcePoint" />
            <mxPoint x="1060" y="925" as="targetPoint" />
          </mxGeometry>
        </mxCell>
        <mxCell id="RwyS920ymA2rjLPkirDZ-18" value="" style="endArrow=none;html=1;rounded=0;entryX=1;entryY=0;entryDx=0;entryDy=0;exitX=0;exitY=1;exitDx=0;exitDy=0;" parent="1" source="RwyS920ymA2rjLPkirDZ-3" target="RwyS920ymA2rjLPkirDZ-10" edge="1">
          <mxGeometry width="50" height="50" relative="1" as="geometry">
            <mxPoint x="1130" y="985" as="sourcePoint" />
            <mxPoint x="1180" y="935" as="targetPoint" />
          </mxGeometry>
        </mxCell>
        <mxCell id="RwyS920ymA2rjLPkirDZ-19" value="" style="endArrow=none;html=1;rounded=0;entryX=0.5;entryY=1;entryDx=0;entryDy=0;exitX=0.5;exitY=0;exitDx=0;exitDy=0;" parent="1" source="RwyS920ymA2rjLPkirDZ-9" target="RwyS920ymA2rjLPkirDZ-3" edge="1">
          <mxGeometry width="50" height="50" relative="1" as="geometry">
            <mxPoint x="1130" y="985" as="sourcePoint" />
            <mxPoint x="1180" y="935" as="targetPoint" />
          </mxGeometry>
        </mxCell>
        <mxCell id="RwyS920ymA2rjLPkirDZ-20" value="" style="endArrow=none;html=1;rounded=0;entryX=1;entryY=1;entryDx=0;entryDy=0;exitX=0;exitY=0;exitDx=0;exitDy=0;" parent="1" source="RwyS920ymA2rjLPkirDZ-7" target="RwyS920ymA2rjLPkirDZ-3" edge="1">
          <mxGeometry width="50" height="50" relative="1" as="geometry">
            <mxPoint x="1270" y="985" as="sourcePoint" />
            <mxPoint x="1320" y="935" as="targetPoint" />
          </mxGeometry>
        </mxCell>
        <mxCell id="RwyS920ymA2rjLPkirDZ-21" value="" style="endArrow=none;html=1;rounded=0;exitX=1;exitY=0.25;exitDx=0;exitDy=0;entryX=0;entryY=0.5;entryDx=0;entryDy=0;" parent="1" source="RwyS920ymA2rjLPkirDZ-3" target="RwyS920ymA2rjLPkirDZ-6" edge="1">
          <mxGeometry width="50" height="50" relative="1" as="geometry">
            <mxPoint x="1270" y="775" as="sourcePoint" />
            <mxPoint x="1320" y="725" as="targetPoint" />
          </mxGeometry>
        </mxCell>
        <mxCell id="RwyS920ymA2rjLPkirDZ-25" value="OrderID (PK)" style="ellipse;whiteSpace=wrap;html=1;" parent="1" vertex="1">
          <mxGeometry x="1283.13" y="340" width="70" height="40" as="geometry" />
        </mxCell>
        <mxCell id="RwyS920ymA2rjLPkirDZ-26" value="CustomerID (FK)" style="ellipse;whiteSpace=wrap;html=1;" parent="1" vertex="1">
          <mxGeometry x="1303.13" y="400" width="90" height="55" as="geometry" />
        </mxCell>
        <mxCell id="RwyS920ymA2rjLPkirDZ-27" value="orderDate" style="ellipse;whiteSpace=wrap;html=1;" parent="1" vertex="1">
          <mxGeometry x="1037.13" y="370" width="70" height="40" as="geometry" />
        </mxCell>
        <mxCell id="RwyS920ymA2rjLPkirDZ-28" value="" style="endArrow=none;html=1;rounded=0;entryX=0;entryY=0.5;entryDx=0;entryDy=0;exitX=1;exitY=0;exitDx=0;exitDy=0;" parent="1" source="RwyS920ymA2rjLPkirDZ-27" target="RwyS920ymA2rjLPkirDZ-2" edge="1">
          <mxGeometry width="50" height="50" relative="1" as="geometry">
            <mxPoint x="963.13" y="450" as="sourcePoint" />
            <mxPoint x="1013.13" y="400" as="targetPoint" />
          </mxGeometry>
        </mxCell>
        <mxCell id="RwyS920ymA2rjLPkirDZ-29" value="" style="endArrow=none;html=1;rounded=0;exitX=1;exitY=0.5;exitDx=0;exitDy=0;entryX=0;entryY=0.5;entryDx=0;entryDy=0;" parent="1" source="RwyS920ymA2rjLPkirDZ-2" target="RwyS920ymA2rjLPkirDZ-25" edge="1">
          <mxGeometry width="50" height="50" relative="1" as="geometry">
            <mxPoint x="1293.13" y="310" as="sourcePoint" />
            <mxPoint x="1343.13" y="260" as="targetPoint" />
          </mxGeometry>
        </mxCell>
        <mxCell id="RwyS920ymA2rjLPkirDZ-30" value="" style="endArrow=none;html=1;rounded=0;exitX=1;exitY=1;exitDx=0;exitDy=0;entryX=0;entryY=0;entryDx=0;entryDy=0;" parent="1" source="RwyS920ymA2rjLPkirDZ-2" target="RwyS920ymA2rjLPkirDZ-26" edge="1">
          <mxGeometry width="50" height="50" relative="1" as="geometry">
            <mxPoint x="1303.13" y="500" as="sourcePoint" />
            <mxPoint x="1353.13" y="450" as="targetPoint" />
          </mxGeometry>
        </mxCell>
        <mxCell id="RwyS920ymA2rjLPkirDZ-31" value="OrderID (FK)" style="ellipse;whiteSpace=wrap;html=1;" parent="1" vertex="1">
          <mxGeometry x="917.5" y="30" width="70" height="40" as="geometry" />
        </mxCell>
        <mxCell id="RwyS920ymA2rjLPkirDZ-32" value="ProductID (FK)" style="ellipse;whiteSpace=wrap;html=1;" parent="1" vertex="1">
          <mxGeometry x="840" y="30" width="70" height="40" as="geometry" />
        </mxCell>
        <mxCell id="RwyS920ymA2rjLPkirDZ-33" value="Quantitiy" style="ellipse;whiteSpace=wrap;html=1;" parent="1" vertex="1">
          <mxGeometry x="987.5" y="50" width="70" height="40" as="geometry" />
        </mxCell>
        <mxCell id="RwyS920ymA2rjLPkirDZ-34" value="Price" style="ellipse;whiteSpace=wrap;html=1;" parent="1" vertex="1">
          <mxGeometry x="995" y="100" width="80" height="40" as="geometry" />
        </mxCell>
        <mxCell id="RwyS920ymA2rjLPkirDZ-35" value="Discount" style="ellipse;whiteSpace=wrap;html=1;" parent="1" vertex="1">
          <mxGeometry x="780" y="60" width="70" height="40" as="geometry" />
        </mxCell>
        <mxCell id="RwyS920ymA2rjLPkirDZ-36" value="ProductID (PK)" style="ellipse;whiteSpace=wrap;html=1;" parent="1" vertex="1">
          <mxGeometry x="661" y="380" width="86" height="50" as="geometry" />
        </mxCell>
        <mxCell id="RwyS920ymA2rjLPkirDZ-37" value="ProductName" style="ellipse;whiteSpace=wrap;html=1;" parent="1" vertex="1">
          <mxGeometry x="657" y="440" width="90" height="40" as="geometry" />
        </mxCell>
        <mxCell id="RwyS920ymA2rjLPkirDZ-40" value="" style="endArrow=none;html=1;rounded=0;entryX=0.5;entryY=0;entryDx=0;entryDy=0;exitX=0.25;exitY=1;exitDx=0;exitDy=0;" parent="1" source="RwyS920ymA2rjLPkirDZ-5" target="RwyS920ymA2rjLPkirDZ-13" edge="1">
          <mxGeometry width="50" height="50" relative="1" as="geometry">
            <mxPoint x="444" y="820" as="sourcePoint" />
            <mxPoint x="494" y="770" as="targetPoint" />
          </mxGeometry>
        </mxCell>
        <mxCell id="RwyS920ymA2rjLPkirDZ-41" value="" style="endArrow=none;html=1;rounded=0;entryX=0.75;entryY=1;entryDx=0;entryDy=0;exitX=0.5;exitY=0;exitDx=0;exitDy=0;" parent="1" source="RwyS920ymA2rjLPkirDZ-14" target="RwyS920ymA2rjLPkirDZ-5" edge="1">
          <mxGeometry width="50" height="50" relative="1" as="geometry">
            <mxPoint x="554" y="920" as="sourcePoint" />
            <mxPoint x="604" y="870" as="targetPoint" />
          </mxGeometry>
        </mxCell>
        <mxCell id="RwyS920ymA2rjLPkirDZ-43" value="currentUnitPrice" style="ellipse;whiteSpace=wrap;html=1;" parent="1" vertex="1">
          <mxGeometry x="414" y="360" width="90" height="40" as="geometry" />
        </mxCell>
        <mxCell id="RwyS920ymA2rjLPkirDZ-44" value="" style="endArrow=none;html=1;rounded=0;entryX=0;entryY=0.5;entryDx=0;entryDy=0;exitX=1;exitY=0.5;exitDx=0;exitDy=0;" parent="1" source="RwyS920ymA2rjLPkirDZ-1" target="RwyS920ymA2rjLPkirDZ-34" edge="1">
          <mxGeometry width="50" height="50" relative="1" as="geometry">
            <mxPoint x="910" y="240" as="sourcePoint" />
            <mxPoint x="960" y="190" as="targetPoint" />
          </mxGeometry>
        </mxCell>
        <mxCell id="RwyS920ymA2rjLPkirDZ-45" value="" style="endArrow=none;html=1;rounded=0;entryX=1;entryY=0.5;entryDx=0;entryDy=0;exitX=0;exitY=0;exitDx=0;exitDy=0;" parent="1" source="RwyS920ymA2rjLPkirDZ-1" target="RwyS920ymA2rjLPkirDZ-35" edge="1">
          <mxGeometry width="50" height="50" relative="1" as="geometry">
            <mxPoint x="690" y="160" as="sourcePoint" />
            <mxPoint x="740" y="110" as="targetPoint" />
          </mxGeometry>
        </mxCell>
        <mxCell id="RwyS920ymA2rjLPkirDZ-46" value="" style="endArrow=none;html=1;rounded=0;entryX=0.5;entryY=1;entryDx=0;entryDy=0;exitX=0.25;exitY=0;exitDx=0;exitDy=0;" parent="1" source="RwyS920ymA2rjLPkirDZ-1" target="RwyS920ymA2rjLPkirDZ-32" edge="1">
          <mxGeometry width="50" height="50" relative="1" as="geometry">
            <mxPoint x="720" y="90" as="sourcePoint" />
            <mxPoint x="770" y="40" as="targetPoint" />
          </mxGeometry>
        </mxCell>
        <mxCell id="RwyS920ymA2rjLPkirDZ-47" value="" style="endArrow=none;html=1;rounded=0;entryX=0.5;entryY=1;entryDx=0;entryDy=0;exitX=0.75;exitY=0;exitDx=0;exitDy=0;" parent="1" source="RwyS920ymA2rjLPkirDZ-1" target="RwyS920ymA2rjLPkirDZ-31" edge="1">
          <mxGeometry width="50" height="50" relative="1" as="geometry">
            <mxPoint x="720" y="160" as="sourcePoint" />
            <mxPoint x="770" y="110" as="targetPoint" />
          </mxGeometry>
        </mxCell>
        <mxCell id="RwyS920ymA2rjLPkirDZ-48" value="" style="endArrow=none;html=1;rounded=0;entryX=0;entryY=0.5;entryDx=0;entryDy=0;exitX=1;exitY=0;exitDx=0;exitDy=0;" parent="1" source="RwyS920ymA2rjLPkirDZ-1" target="RwyS920ymA2rjLPkirDZ-33" edge="1">
          <mxGeometry width="50" height="50" relative="1" as="geometry">
            <mxPoint x="980" y="86" as="sourcePoint" />
            <mxPoint x="1000" y="90" as="targetPoint" />
          </mxGeometry>
        </mxCell>
        <mxCell id="RwyS920ymA2rjLPkirDZ-50" value="" style="endArrow=none;html=1;rounded=0;exitX=1;exitY=0.5;exitDx=0;exitDy=0;entryX=0;entryY=0.25;entryDx=0;entryDy=0;" parent="1" source="RwyS920ymA2rjLPkirDZ-43" target="RwyS920ymA2rjLPkirDZ-4" edge="1">
          <mxGeometry width="50" height="50" relative="1" as="geometry">
            <mxPoint x="464" y="370" as="sourcePoint" />
            <mxPoint x="514" y="320" as="targetPoint" />
          </mxGeometry>
        </mxCell>
        <mxCell id="RwyS920ymA2rjLPkirDZ-51" value="" style="endArrow=none;html=1;rounded=0;entryX=0;entryY=0.5;entryDx=0;entryDy=0;exitX=1;exitY=0.5;exitDx=0;exitDy=0;" parent="1" source="RwyS920ymA2rjLPkirDZ-4" target="RwyS920ymA2rjLPkirDZ-36" edge="1">
          <mxGeometry width="50" height="50" relative="1" as="geometry">
            <mxPoint x="684" y="520" as="sourcePoint" />
            <mxPoint x="734" y="470" as="targetPoint" />
          </mxGeometry>
        </mxCell>
        <mxCell id="RwyS920ymA2rjLPkirDZ-52" value="" style="endArrow=none;html=1;rounded=0;entryX=0.75;entryY=1;entryDx=0;entryDy=0;exitX=0;exitY=0;exitDx=0;exitDy=0;" parent="1" source="RwyS920ymA2rjLPkirDZ-37" target="RwyS920ymA2rjLPkirDZ-4" edge="1">
          <mxGeometry width="50" height="50" relative="1" as="geometry">
            <mxPoint x="704" y="510" as="sourcePoint" />
            <mxPoint x="754" y="460" as="targetPoint" />
          </mxGeometry>
        </mxCell>
        <mxCell id="8SlR7oSxIH-jbCRkCPGp-1" value="CategoryID (FK)" style="ellipse;whiteSpace=wrap;html=1;" parent="1" vertex="1">
          <mxGeometry x="419" y="305" width="105" height="40" as="geometry" />
        </mxCell>
        <mxCell id="8SlR7oSxIH-jbCRkCPGp-2" value="Description" style="ellipse;whiteSpace=wrap;html=1;" parent="1" vertex="1">
          <mxGeometry x="470" y="260" width="90" height="40" as="geometry" />
        </mxCell>
        <mxCell id="8SlR7oSxIH-jbCRkCPGp-3" value="" style="endArrow=none;html=1;rounded=0;entryX=1;entryY=1;entryDx=0;entryDy=0;exitX=0;exitY=0;exitDx=0;exitDy=0;" parent="1" source="RwyS920ymA2rjLPkirDZ-4" target="8SlR7oSxIH-jbCRkCPGp-1" edge="1">
          <mxGeometry width="50" height="50" relative="1" as="geometry">
            <mxPoint x="544" y="390" as="sourcePoint" />
            <mxPoint x="594" y="340" as="targetPoint" />
          </mxGeometry>
        </mxCell>
        <mxCell id="8SlR7oSxIH-jbCRkCPGp-4" value="" style="endArrow=none;html=1;rounded=0;entryX=0.5;entryY=1;entryDx=0;entryDy=0;exitX=0.5;exitY=0;exitDx=0;exitDy=0;" parent="1" source="RwyS920ymA2rjLPkirDZ-4" target="8SlR7oSxIH-jbCRkCPGp-2" edge="1">
          <mxGeometry width="50" height="50" relative="1" as="geometry">
            <mxPoint x="514" y="410" as="sourcePoint" />
            <mxPoint x="564" y="360" as="targetPoint" />
          </mxGeometry>
        </mxCell>
        <mxCell id="8SlR7oSxIH-jbCRkCPGp-5" value="ShipStreet" style="ellipse;whiteSpace=wrap;html=1;" parent="1" vertex="1">
          <mxGeometry x="1233.13" y="290" width="70" height="40" as="geometry" />
        </mxCell>
        <mxCell id="8SlR7oSxIH-jbCRkCPGp-6" value="ShipCity" style="ellipse;whiteSpace=wrap;html=1;" parent="1" vertex="1">
          <mxGeometry x="1178.13" y="250" width="80" height="40" as="geometry" />
        </mxCell>
        <mxCell id="8SlR7oSxIH-jbCRkCPGp-7" value="ShipCountry" style="ellipse;whiteSpace=wrap;html=1;" parent="1" vertex="1">
          <mxGeometry x="1045.63" y="420" width="80" height="40" as="geometry" />
        </mxCell>
        <mxCell id="8SlR7oSxIH-jbCRkCPGp-8" value="ShipPostalCode" style="ellipse;whiteSpace=wrap;html=1;" parent="1" vertex="1">
          <mxGeometry x="972.5" y="320" width="100" height="40" as="geometry" />
        </mxCell>
        <mxCell id="8SlR7oSxIH-jbCRkCPGp-9" value="" style="endArrow=none;html=1;rounded=0;entryX=1;entryY=0.5;entryDx=0;entryDy=0;exitX=0;exitY=0;exitDx=0;exitDy=0;" parent="1" source="RwyS920ymA2rjLPkirDZ-2" target="8SlR7oSxIH-jbCRkCPGp-8" edge="1">
          <mxGeometry width="50" height="50" relative="1" as="geometry">
            <mxPoint x="943.13" y="460" as="sourcePoint" />
            <mxPoint x="993.13" y="410" as="targetPoint" />
          </mxGeometry>
        </mxCell>
        <mxCell id="8SlR7oSxIH-jbCRkCPGp-10" value="" style="endArrow=none;html=1;rounded=0;entryX=0.25;entryY=1;entryDx=0;entryDy=0;exitX=1;exitY=0;exitDx=0;exitDy=0;" parent="1" source="8SlR7oSxIH-jbCRkCPGp-7" target="RwyS920ymA2rjLPkirDZ-2" edge="1">
          <mxGeometry width="50" height="50" relative="1" as="geometry">
            <mxPoint x="983.13" y="470" as="sourcePoint" />
            <mxPoint x="1033.13" y="420" as="targetPoint" />
          </mxGeometry>
        </mxCell>
        <mxCell id="8SlR7oSxIH-jbCRkCPGp-11" value="" style="endArrow=none;html=1;rounded=0;exitX=0.25;exitY=0;exitDx=0;exitDy=0;entryX=0;entryY=1;entryDx=0;entryDy=0;" parent="1" source="RwyS920ymA2rjLPkirDZ-2" target="8SlR7oSxIH-jbCRkCPGp-6" edge="1">
          <mxGeometry width="50" height="50" relative="1" as="geometry">
            <mxPoint x="1283.13" y="260" as="sourcePoint" />
            <mxPoint x="1333.13" y="210" as="targetPoint" />
          </mxGeometry>
        </mxCell>
        <mxCell id="8SlR7oSxIH-jbCRkCPGp-12" value="" style="endArrow=none;html=1;rounded=0;exitX=0.5;exitY=0;exitDx=0;exitDy=0;entryX=0;entryY=0.5;entryDx=0;entryDy=0;" parent="1" source="RwyS920ymA2rjLPkirDZ-2" target="8SlR7oSxIH-jbCRkCPGp-5" edge="1">
          <mxGeometry width="50" height="50" relative="1" as="geometry">
            <mxPoint x="1263.13" y="270" as="sourcePoint" />
            <mxPoint x="1313.13" y="220" as="targetPoint" />
          </mxGeometry>
        </mxCell>
        <mxCell id="pU1bbx3416QLYICwnH9T-1" value="Admin" style="ellipse;whiteSpace=wrap;html=1;" vertex="1" parent="1">
          <mxGeometry x="970" y="960" width="100" height="40" as="geometry" />
        </mxCell>
        <mxCell id="pU1bbx3416QLYICwnH9T-2" value="Active" style="ellipse;whiteSpace=wrap;html=1;" vertex="1" parent="1">
          <mxGeometry x="1020" y="1010" width="100" height="40" as="geometry" />
        </mxCell>
        <mxCell id="pU1bbx3416QLYICwnH9T-5" value="Street" style="ellipse;whiteSpace=wrap;html=1;" vertex="1" parent="1">
          <mxGeometry x="1201" y="1060" width="100" height="40" as="geometry" />
        </mxCell>
        <mxCell id="pU1bbx3416QLYICwnH9T-6" value="houseNbr" style="ellipse;whiteSpace=wrap;html=1;" vertex="1" parent="1">
          <mxGeometry x="1350" y="930" width="100" height="40" as="geometry" />
        </mxCell>
        <mxCell id="pU1bbx3416QLYICwnH9T-7" value="postalcode" style="ellipse;whiteSpace=wrap;html=1;" vertex="1" parent="1">
          <mxGeometry x="1330" y="980" width="100" height="40" as="geometry" />
        </mxCell>
        <mxCell id="pU1bbx3416QLYICwnH9T-8" value="city" style="ellipse;whiteSpace=wrap;html=1;" vertex="1" parent="1">
          <mxGeometry x="1280" y="1030" width="100" height="40" as="geometry" />
        </mxCell>
        <mxCell id="pU1bbx3416QLYICwnH9T-9" value="country" style="ellipse;whiteSpace=wrap;html=1;" vertex="1" parent="1">
          <mxGeometry x="1360" y="880" width="100" height="40" as="geometry" />
        </mxCell>
        <mxCell id="pU1bbx3416QLYICwnH9T-10" value="profile_picture" style="ellipse;whiteSpace=wrap;html=1;" vertex="1" parent="1">
          <mxGeometry x="1090" y="1060" width="100" height="40" as="geometry" />
        </mxCell>
        <mxCell id="pU1bbx3416QLYICwnH9T-11" value="" style="endArrow=none;html=1;rounded=0;entryX=1;entryY=0.5;entryDx=0;entryDy=0;exitX=0.5;exitY=1;exitDx=0;exitDy=0;" edge="1" parent="1" source="RwyS920ymA2rjLPkirDZ-3" target="pU1bbx3416QLYICwnH9T-1">
          <mxGeometry width="50" height="50" relative="1" as="geometry">
            <mxPoint x="1260" y="800" as="sourcePoint" />
            <mxPoint x="1310" y="750" as="targetPoint" />
          </mxGeometry>
        </mxCell>
        <mxCell id="pU1bbx3416QLYICwnH9T-12" value="" style="endArrow=none;html=1;rounded=0;exitX=0.5;exitY=0;exitDx=0;exitDy=0;entryX=0.5;entryY=1;entryDx=0;entryDy=0;" edge="1" parent="1" source="pU1bbx3416QLYICwnH9T-10" target="RwyS920ymA2rjLPkirDZ-3">
          <mxGeometry width="50" height="50" relative="1" as="geometry">
            <mxPoint x="1260" y="800" as="sourcePoint" />
            <mxPoint x="1310" y="750" as="targetPoint" />
          </mxGeometry>
        </mxCell>
        <mxCell id="pU1bbx3416QLYICwnH9T-13" value="" style="endArrow=none;html=1;rounded=0;exitX=0.5;exitY=0;exitDx=0;exitDy=0;entryX=0.5;entryY=1;entryDx=0;entryDy=0;" edge="1" parent="1" source="pU1bbx3416QLYICwnH9T-5" target="RwyS920ymA2rjLPkirDZ-3">
          <mxGeometry width="50" height="50" relative="1" as="geometry">
            <mxPoint x="1260" y="800" as="sourcePoint" />
            <mxPoint x="1310" y="750" as="targetPoint" />
          </mxGeometry>
        </mxCell>
        <mxCell id="pU1bbx3416QLYICwnH9T-14" value="" style="endArrow=none;html=1;rounded=0;exitX=0;exitY=0;exitDx=0;exitDy=0;entryX=0.5;entryY=1;entryDx=0;entryDy=0;" edge="1" parent="1" source="pU1bbx3416QLYICwnH9T-8" target="RwyS920ymA2rjLPkirDZ-3">
          <mxGeometry width="50" height="50" relative="1" as="geometry">
            <mxPoint x="1260" y="800" as="sourcePoint" />
            <mxPoint x="1310" y="750" as="targetPoint" />
          </mxGeometry>
        </mxCell>
        <mxCell id="pU1bbx3416QLYICwnH9T-15" value="" style="endArrow=none;html=1;rounded=0;exitX=0;exitY=0.5;exitDx=0;exitDy=0;entryX=0.5;entryY=1;entryDx=0;entryDy=0;" edge="1" parent="1" source="pU1bbx3416QLYICwnH9T-7" target="RwyS920ymA2rjLPkirDZ-3">
          <mxGeometry width="50" height="50" relative="1" as="geometry">
            <mxPoint x="1260" y="800" as="sourcePoint" />
            <mxPoint x="1310" y="750" as="targetPoint" />
          </mxGeometry>
        </mxCell>
        <mxCell id="pU1bbx3416QLYICwnH9T-16" value="" style="endArrow=none;html=1;rounded=0;exitX=0;exitY=0.5;exitDx=0;exitDy=0;entryX=0.5;entryY=1;entryDx=0;entryDy=0;" edge="1" parent="1" source="pU1bbx3416QLYICwnH9T-6" target="RwyS920ymA2rjLPkirDZ-3">
          <mxGeometry width="50" height="50" relative="1" as="geometry">
            <mxPoint x="1260" y="800" as="sourcePoint" />
            <mxPoint x="1310" y="750" as="targetPoint" />
          </mxGeometry>
        </mxCell>
        <mxCell id="pU1bbx3416QLYICwnH9T-17" value="" style="endArrow=none;html=1;rounded=0;exitX=0;exitY=0.5;exitDx=0;exitDy=0;entryX=0.75;entryY=1;entryDx=0;entryDy=0;" edge="1" parent="1" source="pU1bbx3416QLYICwnH9T-9" target="RwyS920ymA2rjLPkirDZ-3">
          <mxGeometry width="50" height="50" relative="1" as="geometry">
            <mxPoint x="1260" y="800" as="sourcePoint" />
            <mxPoint x="1310" y="750" as="targetPoint" />
          </mxGeometry>
        </mxCell>
        <mxCell id="pU1bbx3416QLYICwnH9T-18" value="ShippedDate" style="ellipse;whiteSpace=wrap;html=1;" vertex="1" parent="1">
          <mxGeometry x="1093.13" y="465" width="80" height="40" as="geometry" />
        </mxCell>
        <mxCell id="pU1bbx3416QLYICwnH9T-19" value="" style="endArrow=none;html=1;rounded=0;entryX=0.5;entryY=1;entryDx=0;entryDy=0;exitX=0.5;exitY=0;exitDx=0;exitDy=0;" edge="1" parent="1" source="pU1bbx3416QLYICwnH9T-18" target="RwyS920ymA2rjLPkirDZ-2">
          <mxGeometry width="50" height="50" relative="1" as="geometry">
            <mxPoint x="1213.13" y="515" as="sourcePoint" />
            <mxPoint x="1263.13" y="465" as="targetPoint" />
          </mxGeometry>
        </mxCell>
        <mxCell id="pU1bbx3416QLYICwnH9T-20" value="ShipHouseNumber" style="ellipse;whiteSpace=wrap;html=1;" vertex="1" parent="1">
          <mxGeometry x="1299.38" y="480" width="147.5" height="60" as="geometry" />
        </mxCell>
        <mxCell id="pU1bbx3416QLYICwnH9T-22" value="" style="endArrow=none;html=1;rounded=0;exitX=0.5;exitY=1;exitDx=0;exitDy=0;entryX=0;entryY=0;entryDx=0;entryDy=0;" edge="1" parent="1" source="RwyS920ymA2rjLPkirDZ-2" target="pU1bbx3416QLYICwnH9T-20">
          <mxGeometry width="50" height="50" relative="1" as="geometry">
            <mxPoint x="1213.13" y="515" as="sourcePoint" />
            <mxPoint x="1263.13" y="465" as="targetPoint" />
          </mxGeometry>
        </mxCell>
        <mxCell id="pU1bbx3416QLYICwnH9T-23" value="Plaatst een" style="rhombus;whiteSpace=wrap;html=1;" vertex="1" parent="1">
          <mxGeometry x="1163.13" y="590" width="80" height="80" as="geometry" />
        </mxCell>
        <mxCell id="pU1bbx3416QLYICwnH9T-24" value="" style="endArrow=none;html=1;rounded=0;exitX=0.5;exitY=0;exitDx=0;exitDy=0;entryX=0.5;entryY=1;entryDx=0;entryDy=0;" edge="1" parent="1" source="RwyS920ymA2rjLPkirDZ-3" target="pU1bbx3416QLYICwnH9T-23">
          <mxGeometry width="50" height="50" relative="1" as="geometry">
            <mxPoint x="1240" y="700" as="sourcePoint" />
            <mxPoint x="1290" y="650" as="targetPoint" />
          </mxGeometry>
        </mxCell>
        <mxCell id="pU1bbx3416QLYICwnH9T-25" value="" style="endArrow=none;html=1;rounded=0;exitX=0.5;exitY=0;exitDx=0;exitDy=0;entryX=0.5;entryY=1;entryDx=0;entryDy=0;" edge="1" parent="1" source="pU1bbx3416QLYICwnH9T-23" target="RwyS920ymA2rjLPkirDZ-2">
          <mxGeometry width="50" height="50" relative="1" as="geometry">
            <mxPoint x="1240" y="700" as="sourcePoint" />
            <mxPoint x="1290" y="650" as="targetPoint" />
          </mxGeometry>
        </mxCell>
        <mxCell id="pU1bbx3416QLYICwnH9T-26" value="One" style="text;html=1;strokeColor=none;fillColor=none;align=center;verticalAlign=middle;whiteSpace=wrap;rounded=0;" vertex="1" parent="1">
          <mxGeometry x="1201" y="760" width="60" height="30" as="geometry" />
        </mxCell>
        <mxCell id="pU1bbx3416QLYICwnH9T-27" value="Many" style="text;html=1;strokeColor=none;fillColor=none;align=center;verticalAlign=middle;whiteSpace=wrap;rounded=0;" vertex="1" parent="1">
          <mxGeometry x="1203.13" y="465" width="60" height="30" as="geometry" />
        </mxCell>
        <mxCell id="pU1bbx3416QLYICwnH9T-28" value="OrderDetailID (PK)" style="ellipse;whiteSpace=wrap;html=1;" vertex="1" parent="1">
          <mxGeometry x="680" y="95" width="110" height="50" as="geometry" />
        </mxCell>
        <mxCell id="pU1bbx3416QLYICwnH9T-29" value="" style="endArrow=none;html=1;rounded=0;exitX=1;exitY=0.5;exitDx=0;exitDy=0;entryX=0;entryY=0.5;entryDx=0;entryDy=0;" edge="1" parent="1" source="pU1bbx3416QLYICwnH9T-28" target="RwyS920ymA2rjLPkirDZ-1">
          <mxGeometry width="50" height="50" relative="1" as="geometry">
            <mxPoint x="1220" y="30" as="sourcePoint" />
            <mxPoint x="1270" y="-20" as="targetPoint" />
          </mxGeometry>
        </mxCell>
        <mxCell id="pU1bbx3416QLYICwnH9T-30" value="Bevat een" style="rhombus;whiteSpace=wrap;html=1;" vertex="1" parent="1">
          <mxGeometry x="982.5" y="195" width="80" height="80" as="geometry" />
        </mxCell>
        <mxCell id="pU1bbx3416QLYICwnH9T-31" value="" style="endArrow=none;html=1;rounded=0;entryX=1;entryY=1;entryDx=0;entryDy=0;exitX=0.25;exitY=0;exitDx=0;exitDy=0;" edge="1" parent="1" source="RwyS920ymA2rjLPkirDZ-2" target="pU1bbx3416QLYICwnH9T-30">
          <mxGeometry width="50" height="50" relative="1" as="geometry">
            <mxPoint x="780" y="250" as="sourcePoint" />
            <mxPoint x="830" y="200" as="targetPoint" />
          </mxGeometry>
        </mxCell>
        <mxCell id="pU1bbx3416QLYICwnH9T-32" value="" style="endArrow=none;html=1;rounded=0;exitX=0;exitY=0;exitDx=0;exitDy=0;entryX=0.5;entryY=1;entryDx=0;entryDy=0;" edge="1" parent="1" source="pU1bbx3416QLYICwnH9T-30" target="RwyS920ymA2rjLPkirDZ-1">
          <mxGeometry width="50" height="50" relative="1" as="geometry">
            <mxPoint x="780" y="250" as="sourcePoint" />
            <mxPoint x="830" y="200" as="targetPoint" />
          </mxGeometry>
        </mxCell>
        <mxCell id="pU1bbx3416QLYICwnH9T-33" value="Bevat een" style="rhombus;whiteSpace=wrap;html=1;" vertex="1" parent="1">
          <mxGeometry x="747" y="200" width="80" height="80" as="geometry" />
        </mxCell>
        <mxCell id="pU1bbx3416QLYICwnH9T-34" value="" style="endArrow=none;html=1;rounded=0;entryX=0.5;entryY=1;entryDx=0;entryDy=0;exitX=1;exitY=0;exitDx=0;exitDy=0;" edge="1" parent="1" source="pU1bbx3416QLYICwnH9T-33" target="RwyS920ymA2rjLPkirDZ-1">
          <mxGeometry width="50" height="50" relative="1" as="geometry">
            <mxPoint x="780" y="250" as="sourcePoint" />
            <mxPoint x="830" y="200" as="targetPoint" />
          </mxGeometry>
        </mxCell>
        <mxCell id="pU1bbx3416QLYICwnH9T-35" value="Many" style="text;html=1;strokeColor=none;fillColor=none;align=center;verticalAlign=middle;whiteSpace=wrap;rounded=0;" vertex="1" parent="1">
          <mxGeometry x="970.0000000000001" y="160" width="60" height="30" as="geometry" />
        </mxCell>
        <mxCell id="pU1bbx3416QLYICwnH9T-36" value="Many" style="text;html=1;strokeColor=none;fillColor=none;align=center;verticalAlign=middle;whiteSpace=wrap;rounded=0;" vertex="1" parent="1">
          <mxGeometry x="820.0000000000001" y="150" width="60" height="30" as="geometry" />
        </mxCell>
        <mxCell id="pU1bbx3416QLYICwnH9T-37" value="One" style="text;html=1;strokeColor=none;fillColor=none;align=center;verticalAlign=middle;whiteSpace=wrap;rounded=0;" vertex="1" parent="1">
          <mxGeometry x="1113.13" y="285" width="60" height="30" as="geometry" />
        </mxCell>
        <mxCell id="pU1bbx3416QLYICwnH9T-38" value="currentUnitCost" style="ellipse;whiteSpace=wrap;html=1;" vertex="1" parent="1">
          <mxGeometry x="390" y="410" width="90" height="40" as="geometry" />
        </mxCell>
        <mxCell id="pU1bbx3416QLYICwnH9T-39" value="Creator" style="ellipse;whiteSpace=wrap;html=1;" vertex="1" parent="1">
          <mxGeometry x="426.5" y="455" width="90" height="40" as="geometry" />
        </mxCell>
        <mxCell id="pU1bbx3416QLYICwnH9T-40" value="Picture" style="ellipse;whiteSpace=wrap;html=1;" vertex="1" parent="1">
          <mxGeometry x="524" y="215" width="90" height="40" as="geometry" />
        </mxCell>
        <mxCell id="pU1bbx3416QLYICwnH9T-41" value="Active" style="ellipse;whiteSpace=wrap;html=1;" vertex="1" parent="1">
          <mxGeometry x="630" y="490" width="90" height="40" as="geometry" />
        </mxCell>
        <mxCell id="pU1bbx3416QLYICwnH9T-42" value="" style="endArrow=none;html=1;rounded=0;exitX=0.5;exitY=1;exitDx=0;exitDy=0;entryX=0.5;entryY=0;entryDx=0;entryDy=0;" edge="1" parent="1" source="pU1bbx3416QLYICwnH9T-40" target="RwyS920ymA2rjLPkirDZ-4">
          <mxGeometry width="50" height="50" relative="1" as="geometry">
            <mxPoint x="750" y="400" as="sourcePoint" />
            <mxPoint x="580" y="350" as="targetPoint" />
          </mxGeometry>
        </mxCell>
        <mxCell id="pU1bbx3416QLYICwnH9T-43" value="" style="endArrow=none;html=1;rounded=0;exitX=0;exitY=1;exitDx=0;exitDy=0;entryX=1;entryY=0;entryDx=0;entryDy=0;" edge="1" parent="1" source="pU1bbx3416QLYICwnH9T-33" target="RwyS920ymA2rjLPkirDZ-4">
          <mxGeometry width="50" height="50" relative="1" as="geometry">
            <mxPoint x="750" y="400" as="sourcePoint" />
            <mxPoint x="800" y="350" as="targetPoint" />
          </mxGeometry>
        </mxCell>
        <mxCell id="pU1bbx3416QLYICwnH9T-44" value="" style="endArrow=none;html=1;rounded=0;entryX=0.5;entryY=1;entryDx=0;entryDy=0;exitX=0;exitY=0;exitDx=0;exitDy=0;" edge="1" parent="1" source="pU1bbx3416QLYICwnH9T-41" target="RwyS920ymA2rjLPkirDZ-4">
          <mxGeometry width="50" height="50" relative="1" as="geometry">
            <mxPoint x="510" y="545" as="sourcePoint" />
            <mxPoint x="560" y="495" as="targetPoint" />
          </mxGeometry>
        </mxCell>
        <mxCell id="pU1bbx3416QLYICwnH9T-45" value="" style="endArrow=none;html=1;rounded=0;entryX=0;entryY=1;entryDx=0;entryDy=0;exitX=1;exitY=0.5;exitDx=0;exitDy=0;" edge="1" parent="1" source="pU1bbx3416QLYICwnH9T-38" target="RwyS920ymA2rjLPkirDZ-4">
          <mxGeometry width="50" height="50" relative="1" as="geometry">
            <mxPoint x="750" y="400" as="sourcePoint" />
            <mxPoint x="800" y="350" as="targetPoint" />
          </mxGeometry>
        </mxCell>
        <mxCell id="pU1bbx3416QLYICwnH9T-46" value="" style="endArrow=none;html=1;rounded=0;exitX=0.25;exitY=1;exitDx=0;exitDy=0;entryX=1;entryY=0;entryDx=0;entryDy=0;" edge="1" parent="1" source="RwyS920ymA2rjLPkirDZ-4" target="pU1bbx3416QLYICwnH9T-39">
          <mxGeometry width="50" height="50" relative="1" as="geometry">
            <mxPoint x="750" y="400" as="sourcePoint" />
            <mxPoint x="800" y="350" as="targetPoint" />
          </mxGeometry>
        </mxCell>
        <mxCell id="pU1bbx3416QLYICwnH9T-47" value="One" style="text;html=1;strokeColor=none;fillColor=none;align=center;verticalAlign=middle;whiteSpace=wrap;rounded=0;" vertex="1" parent="1">
          <mxGeometry x="650.0000000000001" y="340" width="60" height="30" as="geometry" />
        </mxCell>
        <mxCell id="pU1bbx3416QLYICwnH9T-48" value="Behoort tot" style="rhombus;whiteSpace=wrap;html=1;" vertex="1" parent="1">
          <mxGeometry x="544.0000000000001" y="560" width="80" height="80" as="geometry" />
        </mxCell>
        <mxCell id="pU1bbx3416QLYICwnH9T-49" value="Active" style="ellipse;whiteSpace=wrap;html=1;" vertex="1" parent="1">
          <mxGeometry x="666.5" y="742.5" width="105" height="40" as="geometry" />
        </mxCell>
        <mxCell id="pU1bbx3416QLYICwnH9T-50" value="" style="endArrow=none;html=1;rounded=0;exitX=0;exitY=0.5;exitDx=0;exitDy=0;entryX=1;entryY=0.5;entryDx=0;entryDy=0;" edge="1" parent="1" source="pU1bbx3416QLYICwnH9T-49" target="RwyS920ymA2rjLPkirDZ-5">
          <mxGeometry width="50" height="50" relative="1" as="geometry">
            <mxPoint x="685" y="610" as="sourcePoint" />
            <mxPoint x="735" y="560" as="targetPoint" />
          </mxGeometry>
        </mxCell>
        <mxCell id="pU1bbx3416QLYICwnH9T-51" value="Description" style="ellipse;whiteSpace=wrap;html=1;" vertex="1" parent="1">
          <mxGeometry x="390" y="742.5" width="105" height="40" as="geometry" />
        </mxCell>
        <mxCell id="pU1bbx3416QLYICwnH9T-52" value="" style="endArrow=none;html=1;rounded=0;exitX=1;exitY=0.5;exitDx=0;exitDy=0;entryX=0;entryY=0.5;entryDx=0;entryDy=0;" edge="1" parent="1" source="pU1bbx3416QLYICwnH9T-51" target="RwyS920ymA2rjLPkirDZ-5">
          <mxGeometry width="50" height="50" relative="1" as="geometry">
            <mxPoint x="685" y="610" as="sourcePoint" />
            <mxPoint x="735" y="560" as="targetPoint" />
          </mxGeometry>
        </mxCell>
        <mxCell id="pU1bbx3416QLYICwnH9T-53" value="" style="endArrow=none;html=1;rounded=0;exitX=0.5;exitY=1;exitDx=0;exitDy=0;entryX=0.5;entryY=0;entryDx=0;entryDy=0;" edge="1" parent="1" source="pU1bbx3416QLYICwnH9T-48" target="RwyS920ymA2rjLPkirDZ-5">
          <mxGeometry width="50" height="50" relative="1" as="geometry">
            <mxPoint x="685" y="610" as="sourcePoint" />
            <mxPoint x="735" y="560" as="targetPoint" />
          </mxGeometry>
        </mxCell>
        <mxCell id="pU1bbx3416QLYICwnH9T-54" value="" style="endArrow=none;html=1;rounded=0;exitX=0.5;exitY=1;exitDx=0;exitDy=0;entryX=0.5;entryY=0;entryDx=0;entryDy=0;" edge="1" parent="1" source="RwyS920ymA2rjLPkirDZ-4" target="pU1bbx3416QLYICwnH9T-48">
          <mxGeometry width="50" height="50" relative="1" as="geometry">
            <mxPoint x="670" y="610" as="sourcePoint" />
            <mxPoint x="720" y="560" as="targetPoint" />
          </mxGeometry>
        </mxCell>
        <mxCell id="pU1bbx3416QLYICwnH9T-55" value="One" style="text;html=1;strokeColor=none;fillColor=none;align=center;verticalAlign=middle;whiteSpace=wrap;rounded=0;" vertex="1" parent="1">
          <mxGeometry x="584.0000000000001" y="670" width="60" height="30" as="geometry" />
        </mxCell>
        <mxCell id="pU1bbx3416QLYICwnH9T-56" value="Many" style="text;html=1;strokeColor=none;fillColor=none;align=center;verticalAlign=middle;whiteSpace=wrap;rounded=0;" vertex="1" parent="1">
          <mxGeometry x="531.5000000000001" y="435" width="60" height="30" as="geometry" />
        </mxCell>
      </root>
    </mxGraphModel>
  </diagram>
</mxfile>
